# xmcd
#
# Track frame offsets:
#	150
#	16253
#	28745
#	44844
#	63386
#	78966
#	94818
#	110504
#	126219
#	143317
#	159246
#	169088
#	183434
#	196322
#	210149
#	226211
#	242686
#	262406
#
# Disc length: 3677 seconds
#
# Revision: 2
# Processed by: cddbd v1.5.2PL0 Copyright (c) Steve Scherf et al.
# Submitted via: audiograbber 1.83.01
#
DISCID=ed0e5b12
DTITLE=Various Artist - Promo Only Country Radio 2011 - 12
DYEAR=2012
DGENRE=Country
TTITLE0=Zac Brown Band - Keep Me in Mind (PO Clean Edit)
TTITLE1=Billy Currington - Like My Dog
TTITLE2=Brad Paisley - Camouflage
TTITLE3=The Farm - Home Sweet Home
TTITLE4=Eric Paslay - Never Really Wanted
TTITLE5=Kenny Chesney - Reality
TTITLE6=Lee Brice - A Woman Like You
TTITLE7=Wade Bowen - Saturday Night
TTITLE8=Scotty McCreery - The Trouble with Girls
TTITLE9=Jake Owen - Alone with You
TTITLE10=Burns and Poe - I Need A Job
TTITLE11=Trent Tomlinson - A Man Without A Woman
TTITLE12=Neal McCoy - A-OK
TTITLE13=Jackie Arredondo - Rockin' that Trailer
TTITLE14=Corey Smith - Maybe Next Year (PO Clean Edit)
TTITLE15=Katie Armiger - Scream
TTITLE16=John Colbert - When Country is Not
TTITLE17=Levi - Hillbilly Way
EXTD=
EXTT0=
EXTT1=
EXTT2=
EXTT3=
EXTT4=
EXTT5=
EXTT6=
EXTT7=
EXTT8=
EXTT9=
EXTT10=
EXTT11=
EXTT12=
EXTT13=
EXTT14=
EXTT15=
EXTT16=
EXTT17=
PLAYORDER=
